<svg width="20" height="20" viewBox="0 0 20 20" fill="none" xmlns="http://www.w3.org/2000/svg">
<path d="M10 15.8334C10.1648 15.8334 10.3259 15.7845 10.463 15.6929C10.6 15.6014 10.7068 15.4712 10.7699 15.3189C10.833 15.1667 10.8495 14.9991 10.8173 14.8375C10.7852 14.6758 10.7058 14.5273 10.5893 14.4108C10.4727 14.2942 10.3242 14.2149 10.1626 14.1827C10.0009 14.1506 9.83337 14.1671 9.68109 14.2301C9.52882 14.2932 9.39867 14.4 9.30711 14.5371C9.21554 14.6741 9.16666 14.8352 9.16666 15C9.16666 15.2211 9.25446 15.433 9.41074 15.5893C9.56702 15.7456 9.77898 15.8334 10 15.8334ZM14.1667 15.8334C14.3315 15.8334 14.4926 15.7845 14.6296 15.6929C14.7667 15.6014 14.8735 15.4712 14.9366 15.3189C14.9996 15.1667 15.0161 14.9991 14.984 14.8375C14.9518 14.6758 14.8725 14.5273 14.7559 14.4108C14.6394 14.2942 14.4909 14.2149 14.3292 14.1827C14.1676 14.1506 14 14.1671 13.8478 14.2301C13.6955 14.2932 13.5653 14.4 13.4738 14.5371C13.3822 14.6741 13.3333 14.8352 13.3333 15C13.3333 15.2211 13.4211 15.433 13.5774 15.5893C13.7337 15.7456 13.9457 15.8334 14.1667 15.8334ZM14.1667 12.5C14.3315 12.5 14.4926 12.4512 14.6296 12.3596C14.7667 12.268 14.8735 12.1379 14.9366 11.9856C14.9996 11.8333 15.0161 11.6658 14.984 11.5041C14.9518 11.3425 14.8725 11.194 14.7559 11.0775C14.6394 10.9609 14.4909 10.8815 14.3292 10.8494C14.1676 10.8172 14 10.8337 13.8478 10.8968C13.6955 10.9599 13.5653 11.0667 13.4738 11.2037C13.3822 11.3408 13.3333 11.5019 13.3333 11.6667C13.3333 11.8877 13.4211 12.0997 13.5774 12.256C13.7337 12.4122 13.9457 12.5 14.1667 12.5ZM10 12.5C10.1648 12.5 10.3259 12.4512 10.463 12.3596C10.6 12.268 10.7068 12.1379 10.7699 11.9856C10.833 11.8333 10.8495 11.6658 10.8173 11.5041C10.7852 11.3425 10.7058 11.194 10.5893 11.0775C10.4727 10.9609 10.3242 10.8815 10.1626 10.8494C10.0009 10.8172 9.83337 10.8337 9.68109 10.8968C9.52882 10.9599 9.39867 11.0667 9.30711 11.2037C9.21554 11.3408 9.16666 11.5019 9.16666 11.6667C9.16666 11.8877 9.25446 12.0997 9.41074 12.256C9.56702 12.4122 9.77898 12.5 10 12.5ZM15.8333 2.50004H15V1.66671C15 1.44569 14.9122 1.23373 14.7559 1.07745C14.5996 0.921171 14.3877 0.833374 14.1667 0.833374C13.9457 0.833374 13.7337 0.921171 13.5774 1.07745C13.4211 1.23373 13.3333 1.44569 13.3333 1.66671V2.50004H6.66666V1.66671C6.66666 1.44569 6.57887 1.23373 6.42259 1.07745C6.26631 0.921171 6.05434 0.833374 5.83333 0.833374C5.61232 0.833374 5.40036 0.921171 5.24408 1.07745C5.0878 1.23373 5 1.44569 5 1.66671V2.50004H4.16666C3.50362 2.50004 2.86774 2.76343 2.3989 3.23227C1.93006 3.70111 1.66666 4.337 1.66666 5.00004V16.6667C1.66666 17.3298 1.93006 17.9656 2.3989 18.4345C2.86774 18.9033 3.50362 19.1667 4.16666 19.1667H15.8333C16.4964 19.1667 17.1323 18.9033 17.6011 18.4345C18.0699 17.9656 18.3333 17.3298 18.3333 16.6667V5.00004C18.3333 4.337 18.0699 3.70111 17.6011 3.23227C17.1323 2.76343 16.4964 2.50004 15.8333 2.50004ZM16.6667 16.6667C16.6667 16.8877 16.5789 17.0997 16.4226 17.256C16.2663 17.4122 16.0543 17.5 15.8333 17.5H4.16666C3.94565 17.5 3.73369 17.4122 3.57741 17.256C3.42113 17.0997 3.33333 16.8877 3.33333 16.6667V9.16671H16.6667V16.6667ZM16.6667 7.50004H3.33333V5.00004C3.33333 4.77903 3.42113 4.56707 3.57741 4.41079C3.73369 4.25451 3.94565 4.16671 4.16666 4.16671H5V5.00004C5 5.22105 5.0878 5.43302 5.24408 5.5893C5.40036 5.74558 5.61232 5.83337 5.83333 5.83337C6.05434 5.83337 6.26631 5.74558 6.42259 5.5893C6.57887 5.43302 6.66666 5.22105 6.66666 5.00004V4.16671H13.3333V5.00004C13.3333 5.22105 13.4211 5.43302 13.5774 5.5893C13.7337 5.74558 13.9457 5.83337 14.1667 5.83337C14.3877 5.83337 14.5996 5.74558 14.7559 5.5893C14.9122 5.43302 15 5.22105 15 5.00004V4.16671H15.8333C16.0543 4.16671 16.2663 4.25451 16.4226 4.41079C16.5789 4.56707 16.6667 4.77903 16.6667 5.00004V7.50004ZM5.83333 12.5C5.99815 12.5 6.15927 12.4512 6.29631 12.3596C6.43335 12.268 6.54016 12.1379 6.60323 11.9856C6.6663 11.8333 6.68281 11.6658 6.65065 11.5041C6.6185 11.3425 6.53913 11.194 6.42259 11.0775C6.30604 10.9609 6.15756 10.8815 5.99591 10.8494C5.83426 10.8172 5.6667 10.8337 5.51443 10.8968C5.36216 10.9599 5.23201 11.0667 5.14044 11.2037C5.04887 11.3408 5 11.5019 5 11.6667C5 11.8877 5.0878 12.0997 5.24408 12.256C5.40036 12.4122 5.61232 12.5 5.83333 12.5ZM5.83333 15.8334C5.99815 15.8334 6.15927 15.7845 6.29631 15.6929C6.43335 15.6014 6.54016 15.4712 6.60323 15.3189C6.6663 15.1667 6.68281 14.9991 6.65065 14.8375C6.6185 14.6758 6.53913 14.5273 6.42259 14.4108C6.30604 14.2942 6.15756 14.2149 5.99591 14.1827C5.83426 14.1506 5.6667 14.1671 5.51443 14.2301C5.36216 14.2932 5.23201 14.4 5.14044 14.5371C5.04887 14.6741 5 14.8352 5 15C5 15.2211 5.0878 15.433 5.24408 15.5893C5.40036 15.7456 5.61232 15.8334 5.83333 15.8334Z" fill="#6563FF"/>
</svg>
