<svg width="18" height="18" viewBox="0 0 18 18" fill="none" xmlns="http://www.w3.org/2000/svg">
<path d="M11.5818 9.528L9.83333 8.51888V4.83317C9.83333 4.61216 9.74553 4.4002 9.58925 4.24391C9.43297 4.08763 9.22101 3.99984 8.99999 3.99984C8.77898 3.99984 8.56702 4.08763 8.41074 4.24391C8.25446 4.4002 8.16666 4.61216 8.16666 4.83317V8.99984C8.16662 9.14615 8.20511 9.28989 8.27825 9.4166C8.35139 9.54331 8.45661 9.64853 8.58333 9.72168L10.7484 10.9717C10.8432 11.0265 10.9479 11.062 11.0564 11.0764C11.165 11.0907 11.2753 11.0835 11.3811 11.0552C11.4868 11.0268 11.586 10.978 11.6728 10.9113C11.7597 10.8447 11.8326 10.7615 11.8873 10.6667C11.9421 10.5719 11.9776 10.4672 11.9918 10.3587C12.0061 10.2501 11.9988 10.1398 11.9705 10.0341C11.9421 9.9283 11.8932 9.82918 11.8265 9.74235C11.7598 9.65552 11.6766 9.58268 11.5818 9.528ZM8.99999 0.666504C7.35182 0.666504 5.74065 1.15525 4.37024 2.07092C2.99983 2.9866 1.93173 4.28809 1.301 5.81081C0.670267 7.33353 0.505239 9.00908 0.826783 10.6256C1.14833 12.2421 1.942 13.727 3.10744 14.8924C4.27287 16.0578 5.75773 16.8515 7.37424 17.173C8.99075 17.4946 10.6663 17.3296 12.189 16.6988C13.7117 16.0681 15.0132 15 15.9289 13.6296C16.8446 12.2592 17.3333 10.648 17.3333 8.99984C17.3309 6.79045 16.4521 4.67227 14.8898 3.10999C13.3276 1.54772 11.2094 0.668961 8.99999 0.666504ZM8.99999 15.6665C7.68145 15.6665 6.39252 15.2755 5.29619 14.543C4.19986 13.8104 3.34538 12.7692 2.8408 11.5511C2.33621 10.3329 2.20419 8.99244 2.46143 7.69923C2.71866 6.40603 3.3536 5.21814 4.28595 4.28579C5.2183 3.35344 6.40618 2.7185 7.69939 2.46127C8.9926 2.20403 10.333 2.33606 11.5512 2.84064C12.7694 3.34522 13.8106 4.19971 14.5431 5.29604C15.2757 6.39236 15.6667 7.68129 15.6667 8.99984C15.6646 10.7673 14.9616 12.4618 13.7118 13.7116C12.462 14.9615 10.7675 15.6645 8.99999 15.6665Z" fill="#6563FF"/>
</svg>
