<svg width="32" height="32" viewBox="0 0 32 32" fill="none" xmlns="http://www.w3.org/2000/svg">
<rect width="32" height="32" rx="4" fill="#FFF9ED"/>
<path d="M19.4783 16.7633C19.4633 16.7567 19.4491 16.7492 19.4341 16.7433C19.3191 16.6917 19.2058 16.6375 19.0883 16.5908C19.9061 15.9485 20.5033 15.0672 20.7968 14.0695C21.0902 13.0719 21.0653 12.0076 20.7255 11.0248C20.3857 10.042 19.7479 9.18954 18.9009 8.5862C18.0539 7.98287 17.0399 7.65863 16 7.65863C14.9601 7.65863 13.946 7.98287 13.0991 8.5862C12.2521 9.18954 11.6143 10.042 11.2745 11.0248C10.9347 12.0076 10.9097 13.0719 11.2032 14.0695C11.4966 15.0672 12.0938 15.9485 12.9116 16.5908C12.795 16.6375 12.6808 16.6917 12.5658 16.7433L12.5208 16.7633C11.2131 17.3599 10.083 18.2863 9.24142 19.4516C8.39989 20.6169 7.87587 21.981 7.72081 23.41C7.70899 23.5189 7.71874 23.629 7.74949 23.7342C7.78024 23.8393 7.83139 23.9373 7.90003 24.0227C7.96867 24.108 8.05345 24.179 8.14952 24.2316C8.2456 24.2842 8.35109 24.3173 8.45998 24.3292C8.56887 24.341 8.67902 24.3312 8.78414 24.3005C8.88926 24.2697 8.9873 24.2186 9.07265 24.1499C9.158 24.0813 9.229 23.9965 9.28159 23.9005C9.33418 23.8044 9.36733 23.6989 9.37915 23.59C9.49237 22.5454 9.8526 21.5427 10.43 20.6649C11.0075 19.787 11.7856 19.0593 12.7 18.5417L15.41 21.2508C15.5663 21.4071 15.7782 21.4948 15.9991 21.4948C16.2201 21.4948 16.432 21.4071 16.5883 21.2508L19.2983 18.5417C20.213 19.0591 20.9914 19.7868 21.5692 20.6646C22.1469 21.5425 22.5074 22.5452 22.6208 23.59C22.643 23.7939 22.7396 23.9825 22.8921 24.1197C23.0446 24.2568 23.2424 24.3329 23.4475 24.3333C23.4781 24.3333 23.5087 24.3316 23.5391 24.3283C23.7588 24.3044 23.96 24.1943 24.0985 24.022C24.2369 23.8498 24.3013 23.6297 24.2775 23.41C24.1224 21.981 23.5984 20.6169 22.7569 19.4516C21.9153 18.2863 20.7861 17.3599 19.4783 16.7633ZM12.7008 12.3283C12.7792 11.5076 13.1606 10.7456 13.7706 10.191C14.3807 9.63641 15.1755 9.32912 16 9.32912C16.8244 9.32912 17.6193 9.63641 18.2293 10.191C18.8394 10.7456 19.2208 11.5076 19.2991 12.3283H12.7008ZM16 19.4833L14.3858 17.8692C15.445 17.5989 16.555 17.5989 17.6141 17.8692L16 19.4833ZM16 16C15.3512 15.9989 14.7168 15.8087 14.1745 15.4526C13.6322 15.0964 13.2055 14.5899 12.9466 13.995H19.0533C18.7945 14.5899 18.3678 15.0964 17.8255 15.4526C17.2832 15.8087 16.6488 15.9989 16 16Z" fill="#FFC046"/>
</svg>
