<svg width="32" height="32" viewBox="0 0 32 32" fill="none" xmlns="http://www.w3.org/2000/svg">
<rect width="32" height="32" rx="4" fill="#ECECFF"/>
<rect x="9" y="11" width="14" height="12" fill="#DAD9FE"/>
<path d="M11.8333 10.1666V7.66665C11.8333 7.44563 11.9211 7.23367 12.0774 7.07739C12.2337 6.92111 12.4456 6.83331 12.6666 6.83331H19.3333C19.5543 6.83331 19.7663 6.92111 19.9225 7.07739C20.0788 7.23367 20.1666 7.44563 20.1666 7.66665V10.1666H23.5C23.721 10.1666 23.9329 10.2544 24.0892 10.4107C24.2455 10.567 24.3333 10.779 24.3333 11V22.6666C24.3333 22.8877 24.2455 23.0996 24.0892 23.2559C23.9329 23.4122 23.721 23.5 23.5 23.5H8.49996C8.27895 23.5 8.06698 23.4122 7.9107 23.2559C7.75442 23.0996 7.66663 22.8877 7.66663 22.6666V11C7.66663 10.779 7.75442 10.567 7.9107 10.4107C8.06698 10.2544 8.27895 10.1666 8.49996 10.1666H11.8333ZM22.6666 16.8333H9.33329V21.8333H22.6666V16.8333ZM22.6666 11.8333H9.33329V15.1666H11.8333V13.5H13.5V15.1666H18.5V13.5H20.1666V15.1666H22.6666V11.8333ZM13.5 8.49998V10.1666H18.5V8.49998H13.5Z" fill="#4541FC"/>
</svg>
