<svg width="32" height="32" viewBox="0 0 32 32" fill="none" xmlns="http://www.w3.org/2000/svg">
<rect width="32" height="32" rx="4" fill="#E6F9F6"/>
<path d="M16 8L13 12L8 14L11 18V23.5L16 21.5L21 23V18L23.5 14L19 12.5L16 8Z" fill="#CCF3ED"/>
<path d="M16 6.41669L19.5216 11.5692L25.51 13.3267L21.6975 18.2684L21.8775 24.5067L16 22.4084L10.1216 24.5067L10.3016 18.2684L6.48914 13.3267L12.4783 11.5692L16 6.41669ZM16 9.37002L13.5183 13.0017L9.29747 14.2392L11.985 17.7217L11.8575 22.1167L15.9991 20.6384L20.1408 22.1167L20.015 17.7217L22.7016 14.2392L18.4808 13.0017L16 9.37002ZM14.3333 16C14.3333 16.442 14.5089 16.866 14.8215 17.1785C15.134 17.4911 15.5579 17.6667 16 17.6667C16.442 17.6667 16.8659 17.4911 17.1785 17.1785C17.491 16.866 17.6666 16.442 17.6666 16H19.3333C19.3333 16.8841 18.9821 17.7319 18.357 18.357C17.7319 18.9822 16.884 19.3334 16 19.3334C15.1159 19.3334 14.2681 18.9822 13.6429 18.357C13.0178 17.7319 12.6666 16.8841 12.6666 16H14.3333Z" fill="#00C2A3"/>
</svg>
