<svg width="32" height="32" viewBox="0 0 32 32" fill="none" xmlns="http://www.w3.org/2000/svg">
<rect width="32" height="32" rx="4" fill="#E6E6E8"/>
<circle cx="16" cy="16" r="7" fill="#CDCDD1"/>
<path d="M16 7.66669C20.6 7.66669 24.3333 11.4 24.3333 16C24.3333 20.6 20.6 24.3334 16 24.3334C11.4 24.3334 7.66663 20.6 7.66663 16C7.66663 11.4 11.4 7.66669 16 7.66669ZM16 22.6667C19.6833 22.6667 22.6666 19.6834 22.6666 16C22.6666 12.3167 19.6833 9.33335 16 9.33335C12.3166 9.33335 9.33329 12.3167 9.33329 16C9.33329 19.6834 12.3166 22.6667 16 22.6667ZM16.8333 16V19.3334H15.1666V16H12.6666L16 12.6667L19.3333 16H16.8333Z" fill="#83838C"/>
</svg>
