<svg width="18" height="18" viewBox="0 0 18 18" fill="none" xmlns="http://www.w3.org/2000/svg">
<path d="M6.25835 5.42508L8.16669 3.50841V11.5001C8.16669 11.7211 8.25449 11.9331 8.41077 12.0893C8.56705 12.2456 8.77901 12.3334 9.00002 12.3334C9.22103 12.3334 9.433 12.2456 9.58928 12.0893C9.74556 11.9331 9.83335 11.7211 9.83335 11.5001V3.50841L11.7417 5.42508C11.8192 5.50318 11.9113 5.56518 12.0129 5.60749C12.1144 5.64979 12.2233 5.67158 12.3334 5.67158C12.4434 5.67158 12.5523 5.64979 12.6538 5.60749C12.7554 5.56518 12.8476 5.50318 12.925 5.42508C13.0031 5.34761 13.0651 5.25544 13.1074 5.15389C13.1497 5.05234 13.1715 4.94342 13.1715 4.83341C13.1715 4.7234 13.1497 4.61448 13.1074 4.51293C13.0651 4.41138 13.0031 4.31921 12.925 4.24174L9.59169 0.90841C9.51243 0.832543 9.41898 0.773072 9.31669 0.73341C9.1138 0.650061 8.88624 0.650061 8.68335 0.73341C8.58106 0.773072 8.48761 0.832543 8.40835 0.90841L5.07502 4.24174C4.99732 4.31944 4.93569 4.41168 4.89364 4.5132C4.85159 4.61472 4.82994 4.72353 4.82994 4.83341C4.82994 4.94329 4.85159 5.0521 4.89364 5.15362C4.93569 5.25514 4.99732 5.34738 5.07502 5.42508C5.15272 5.50278 5.24496 5.56441 5.34648 5.60646C5.448 5.64851 5.5568 5.67015 5.66669 5.67015C5.77657 5.67015 5.88538 5.64851 5.9869 5.60646C6.08841 5.56441 6.18066 5.50278 6.25835 5.42508ZM16.5 10.6667C16.279 10.6667 16.067 10.7545 15.9108 10.9108C15.7545 11.0671 15.6667 11.2791 15.6667 11.5001V14.8334C15.6667 15.0544 15.5789 15.2664 15.4226 15.4227C15.2663 15.5789 15.0544 15.6667 14.8334 15.6667H3.16669C2.94567 15.6667 2.73371 15.5789 2.57743 15.4227C2.42115 15.2664 2.33335 15.0544 2.33335 14.8334V11.5001C2.33335 11.2791 2.24556 11.0671 2.08928 10.9108C1.933 10.7545 1.72103 10.6667 1.50002 10.6667C1.27901 10.6667 1.06704 10.7545 0.910765 10.9108C0.754484 11.0671 0.666687 11.2791 0.666687 11.5001V14.8334C0.666687 15.4965 0.930079 16.1323 1.39892 16.6012C1.86776 17.07 2.50365 17.3334 3.16669 17.3334H14.8334C15.4964 17.3334 16.1323 17.07 16.6011 16.6012C17.07 16.1323 17.3334 15.4965 17.3334 14.8334V11.5001C17.3334 11.2791 17.2456 11.0671 17.0893 10.9108C16.933 10.7545 16.721 10.6667 16.5 10.6667Z" fill="#0E0D32"/>
</svg>
