<svg width="14" height="14" viewBox="0 0 14 14" fill="none" xmlns="http://www.w3.org/2000/svg">
<path d="M7.66671 12V13.3333H6.33337V12H1.00004C0.82323 12 0.65366 11.9298 0.528636 11.8047C0.403612 11.6797 0.333374 11.5101 0.333374 11.3333V0.666669C0.333374 0.489858 0.403612 0.320288 0.528636 0.195264C0.65366 0.0702397 0.82323 1.87243e-06 1.00004 1.87243e-06H5.00004C5.37843 -0.00044707 5.75256 0.0798393 6.09745 0.2355C6.44234 0.391161 6.75006 0.618613 7.00004 0.902669C7.25002 0.618613 7.55774 0.391161 7.90263 0.2355C8.24752 0.0798393 8.62165 -0.00044707 9.00004 1.87243e-06H13C13.1769 1.87243e-06 13.3464 0.0702397 13.4714 0.195264C13.5965 0.320288 13.6667 0.489858 13.6667 0.666669V11.3333C13.6667 11.5101 13.5965 11.6797 13.4714 11.8047C13.3464 11.9298 13.1769 12 13 12H7.66671ZM12.3334 10.6667V1.33334H9.00004C8.64642 1.33334 8.30728 1.47381 8.05723 1.72386C7.80718 1.97391 7.66671 2.31305 7.66671 2.66667V10.6667H12.3334ZM6.33337 10.6667V2.66667C6.33337 2.31305 6.1929 1.97391 5.94285 1.72386C5.6928 1.47381 5.35366 1.33334 5.00004 1.33334H1.66671V10.6667H6.33337Z" fill="#9C9BA3"/>
</svg>
