<svg width="23" height="20" viewBox="0 0 23 20" fill="none" xmlns="http://www.w3.org/2000/svg">
<rect width="23" height="20" fill="#BCBBBB"/>
<g id="Home">
<path d="M-128 -127C-128 -128.105 -127.105 -129 -126 -129H2005C2006.1 -129 2007 -128.105 2007 -127V1093C2007 1094.1 2006.1 1095 2005 1095H-126C-127.105 1095 -128 1094.1 -128 1093V-127Z" fill="#D4D4D4"/>
<path d="M-126 -128H2005V-130H-126V-128ZM2006 -127V1093H2008V-127H2006ZM2005 1094H-126V1096H2005V1094ZM-127 1093V-127H-129V1093H-127ZM-126 1094C-126.552 1094 -127 1093.55 -127 1093H-129C-129 1094.66 -127.657 1096 -126 1096V1094ZM2006 1093C2006 1093.55 2005.55 1094 2005 1094V1096C2006.66 1096 2008 1094.66 2008 1093H2006ZM2005 -128C2005.55 -128 2006 -127.552 2006 -127H2008C2008 -128.657 2006.66 -130 2005 -130V-128ZM-126 -130C-127.657 -130 -129 -128.657 -129 -127H-127C-127 -127.552 -126.552 -128 -126 -128V-130Z" fill="black" fill-opacity="0.1"/>
<g id="Home V2 - Ready for development">
<g id="Navigation">
<rect width="264" height="1024" transform="translate(-28 -29)" fill="#0E0D32"/>
<g id="Frame 691312858" filter="url(#filter0_dd_156_758)">
<rect x="-12" y="-13" width="232" height="46" rx="4" fill="#1C1A64"/>
<g id="Group 7385">
<rect id="Rectangle 64" x="-8" y="-9" width="38" height="38" rx="8" fill="#ECECFF"/>
<g id="Logo" clip-path="url(#clip0_156_758)">
<path id="Vector" fill-rule="evenodd" clip-rule="evenodd" d="M14.2857 17.1429C15.0361 17.1429 15.7792 16.9951 16.4725 16.7079C17.1658 16.4207 17.7957 15.9999 18.3264 15.4692C18.857 14.9386 19.2779 14.3087 19.5651 13.6153C19.8522 12.9221 20 12.179 20 11.4286C20 9.15535 19.0969 6.97512 17.4895 5.36769C15.8821 3.76023 13.7019 2.85718 11.4286 2.85718C9.15535 2.85718 6.97512 3.76023 5.36769 5.36769C3.76023 6.97512 2.85718 9.15535 2.85718 11.4286C2.85718 12.179 3.00498 12.9221 3.29215 13.6153C3.57932 14.3087 4.00023 14.9386 4.53085 15.4692C5.06147 15.9999 5.69141 16.4207 6.38472 16.7079C7.07798 16.9951 7.82106 17.1429 8.57146 17.1429H14.2857ZM11.4286 5.14289C9.76152 5.14289 8.16272 5.80512 6.98392 6.98392C5.80512 8.16272 5.14289 9.76152 5.14289 11.4286C5.14289 11.8788 5.23157 12.3247 5.40387 12.7407C5.57618 13.1567 5.82872 13.5346 6.14712 13.8529C6.46546 14.1713 6.84341 14.4239 7.25941 14.5962C7.67541 14.7685 8.12123 14.8572 8.57146 14.8572H14.2857C14.736 14.8572 15.1818 14.7685 15.5978 14.5962C16.0138 14.4239 16.3917 14.1713 16.7101 13.8529C17.0285 13.5346 17.281 13.1567 17.4533 12.7407C17.6256 12.3247 17.7143 11.8788 17.7143 11.4286C17.7143 9.76152 17.0521 8.16272 15.8733 6.98392C14.6945 5.80512 13.0957 5.14289 11.4286 5.14289Z" fill="#1C1A64"/>
<path id="Vector_2" fill-rule="evenodd" clip-rule="evenodd" d="M7.42857 20C6.45303 20 5.48707 19.7783 4.58578 19.3475C3.68453 18.9168 2.8656 18.2854 2.17578 17.4895C1.48598 16.6935 0.938794 15.7487 0.565466 14.7087C0.192147 13.6688 0 12.5542 0 11.4286C0 8.39754 1.20408 5.49062 3.34735 3.34735C5.49062 1.20408 8.39754 0 11.4286 0C14.4596 0 17.3665 1.20408 19.5098 3.34735C21.6531 5.49062 22.8571 8.39754 22.8571 11.4286C22.8571 12.5542 22.665 13.6688 22.2917 14.7087C21.9183 15.7487 21.3711 16.6935 20.6814 17.4895C19.9915 18.2854 19.1726 18.9168 18.2714 19.3475C17.3701 19.7783 16.4041 20 15.4286 20H7.42857ZM4.96359 4.96359C6.67823 3.24898 9.00371 2.28571 11.4286 2.28571C13.8534 2.28571 16.1789 3.24898 17.8935 4.96359C19.6082 6.67823 20.5714 9.00371 20.5714 11.4286C20.5714 12.2959 20.4231 13.149 20.1404 13.9365C19.8577 14.7239 19.4501 15.4202 18.9541 15.9925C18.4586 16.5642 17.8883 16.9973 17.2857 17.2853C16.6846 17.5726 16.0547 17.7143 15.4286 17.7143H7.42857C6.80246 17.7143 6.17251 17.5726 5.57142 17.2853C4.96885 16.9973 4.39851 16.5642 3.90307 15.9925C3.4071 15.4202 2.99945 14.7239 2.71676 13.9365C2.43406 13.149 2.28571 12.2959 2.28571 11.4286C2.28571 9.00371 3.24898 6.67823 4.96359 4.96359Z" fill="#1C1A64"/>
<path id="Vector_3" d="M14.2858 14.2858H11.4261C11.2341 14.2856 11.0436 14.2661 10.8572 14.2281C10.4961 14.1544 10.1508 14.011 9.84133 13.8042C9.37144 13.4903 9.00521 13.0441 8.78898 12.522C8.71887 12.3527 8.6655 12.1779 8.62921 12.0001C8.55356 11.6295 8.5519 11.2457 8.62641 10.8712C8.73664 10.317 9.00876 9.8079 9.40836 9.40836C9.8079 9.00876 10.317 8.73664 10.8712 8.62641C10.8886 8.62293 10.9059 8.61967 10.9233 8.61653C11.0908 8.58647 11.2599 8.5715 11.4286 8.5715C11.8021 8.5715 12.1737 8.6447 12.522 8.78898C13.0441 9.00521 13.4903 9.37144 13.8042 9.84127C14.1182 10.3112 14.2858 10.8636 14.2858 11.4286H12.0001C12.0001 11.3156 11.9666 11.2052 11.9038 11.1112C11.841 11.0172 11.7517 10.944 11.6473 10.9007C11.5429 10.8574 11.428 10.8461 11.3172 10.8682C11.2063 10.8902 11.1045 10.9446 11.0246 11.0246C10.9446 11.1045 10.8902 11.2063 10.8682 11.3172C10.8461 11.428 10.8574 11.5429 10.9007 11.6473C10.944 11.7517 11.0172 11.841 11.1112 11.9038C11.2052 11.9666 11.3156 12.0001 11.4286 12.0001H14.2858C14.3608 12.0001 14.4352 11.9853 14.5045 11.9566C14.5738 11.9278 14.6368 11.8858 14.6898 11.8327C14.7429 11.7796 14.785 11.7166 14.8137 11.6473C14.8424 11.578 14.8572 11.5037 14.8572 11.4286C14.8572 10.5193 14.496 9.64727 13.853 9.0043C13.21 8.36127 12.338 8.00007 11.4286 8.00007C11.33 8.00007 11.2318 8.0043 11.1344 8.0127C10.8948 8.03333 10.6592 8.07904 10.4315 8.1483C10.2074 8.21636 9.99093 8.30727 9.78538 8.4195C9.54996 8.54807 9.32893 8.70464 9.1275 8.88704C9.08556 8.92498 9.04447 8.96407 9.0043 9.0043C8.72298 9.28555 8.49561 9.61076 8.32881 9.96367C8.24544 10.1401 8.17716 10.3235 8.12493 10.5118C8.06516 10.7272 8.0263 10.9489 8.00956 11.174C8.00327 11.2585 8.00007 11.3434 8.00007 11.4286C8.00007 11.8767 8.0879 12.3227 8.26104 12.7407C8.52058 13.3672 8.96001 13.9026 9.52384 14.2794C9.52704 14.2816 9.53024 14.2837 9.53344 14.2858H8.5715C8.1963 14.2858 7.82476 14.2119 7.47813 14.0683C7.1315 13.9247 6.81653 13.7142 6.55121 13.4489C6.2859 13.1836 6.07544 12.8686 5.93184 12.522C5.78824 12.1754 5.71436 11.8038 5.71436 11.4286C5.71436 9.9131 6.31641 8.45967 7.38801 7.38801C8.45967 6.31641 9.9131 5.71436 11.4286 5.71436C12.9442 5.71436 14.3976 6.31641 15.4693 7.38801C16.5409 8.45967 17.1429 9.9131 17.1429 11.4286C17.1429 11.8038 17.069 12.1754 16.9254 12.522C16.7818 12.8686 16.5714 13.1836 16.3061 13.4489C16.0408 13.7142 15.7258 13.9247 15.3792 14.0683C15.0325 14.2119 14.661 14.2858 14.2858 14.2858Z" fill="#1C1A64"/>
</g>
</g>
</g>
</g>
</g>
</g>
<defs>
<filter id="filter0_dd_156_758" x="-18" y="-15" width="244" height="58" filterUnits="userSpaceOnUse" color-interpolation-filters="sRGB">
<feFlood flood-opacity="0" result="BackgroundImageFix"/>
<feColorMatrix in="SourceAlpha" type="matrix" values="0 0 0 0 0 0 0 0 0 0 0 0 0 0 0 0 0 0 127 0" result="hardAlpha"/>
<feOffset dy="1"/>
<feGaussianBlur stdDeviation="1"/>
<feComposite in2="hardAlpha" operator="out"/>
<feColorMatrix type="matrix" values="0 0 0 0 0.513726 0 0 0 0 0.513726 0 0 0 0 0.54902 0 0 0 0.04 0"/>
<feBlend mode="normal" in2="BackgroundImageFix" result="effect1_dropShadow_156_758"/>
<feColorMatrix in="SourceAlpha" type="matrix" values="0 0 0 0 0 0 0 0 0 0 0 0 0 0 0 0 0 0 127 0" result="hardAlpha"/>
<feOffset dy="4"/>
<feGaussianBlur stdDeviation="3"/>
<feComposite in2="hardAlpha" operator="out"/>
<feColorMatrix type="matrix" values="0 0 0 0 0.513726 0 0 0 0 0.513726 0 0 0 0 0.54902 0 0 0 0.02 0"/>
<feBlend mode="normal" in2="effect1_dropShadow_156_758" result="effect2_dropShadow_156_758"/>
<feBlend mode="normal" in="SourceGraphic" in2="effect2_dropShadow_156_758" result="shape"/>
</filter>
<clipPath id="clip0_156_758">
<rect width="22.8571" height="20" fill="white"/>
</clipPath>
</defs>
</svg>
