<svg width="21" height="21" viewBox="0 0 21 21" fill="none" xmlns="http://www.w3.org/2000/svg">
<g clip-path="url(#clip0_562_2128)">
<path d="M9.62501 7.875H13.125C13.3571 7.875 13.5796 7.78281 13.7437 7.61872C13.9078 7.45462 14 7.23207 14 7C14 6.76794 13.9078 6.54538 13.7437 6.38128C13.5796 6.21719 13.3571 6.125 13.125 6.125H11.375V5.25C11.375 5.01794 11.2828 4.79538 11.1187 4.63128C10.9546 4.46719 10.7321 4.375 10.5 4.375C10.2679 4.375 10.0454 4.46719 9.88129 4.63128C9.71719 4.79538 9.62501 5.01794 9.62501 5.25V6.125C8.92881 6.125 8.26113 6.40156 7.76885 6.89385C7.27657 7.38613 7.00001 8.05381 7.00001 8.75C7.00001 9.44619 7.27657 10.1139 7.76885 10.6062C8.26113 11.0984 8.92881 11.375 9.62501 11.375H11.375C11.6071 11.375 11.8296 11.4672 11.9937 11.6313C12.1578 11.7954 12.25 12.0179 12.25 12.25C12.25 12.4821 12.1578 12.7046 11.9937 12.8687C11.8296 13.0328 11.6071 13.125 11.375 13.125H7.87501C7.64294 13.125 7.42038 13.2172 7.25629 13.3813C7.09219 13.5454 7.00001 13.7679 7.00001 14C7.00001 14.2321 7.09219 14.4546 7.25629 14.6187C7.42038 14.7828 7.64294 14.875 7.87501 14.875H9.62501V15.75C9.62501 15.9821 9.71719 16.2046 9.88129 16.3687C10.0454 16.5328 10.2679 16.625 10.5 16.625C10.7321 16.625 10.9546 16.5328 11.1187 16.3687C11.2828 16.2046 11.375 15.9821 11.375 15.75V14.875C12.0712 14.875 12.7389 14.5984 13.2312 14.1062C13.7234 13.6139 14 12.9462 14 12.25C14 11.5538 13.7234 10.8861 13.2312 10.3938C12.7389 9.90156 12.0712 9.625 11.375 9.625H9.62501C9.39294 9.625 9.17038 9.53281 9.00629 9.36872C8.84219 9.20463 8.75001 8.98207 8.75001 8.75C8.75001 8.51794 8.84219 8.29538 9.00629 8.13128C9.17038 7.96719 9.39294 7.875 9.62501 7.875ZM10.5 0.875C8.59636 0.875 6.73546 1.4395 5.15264 2.49711C3.56982 3.55471 2.33616 5.05793 1.60766 6.81667C0.87917 8.57541 0.688563 10.5107 1.05995 12.3777C1.43133 14.2448 2.34802 15.9598 3.6941 17.3059C5.04018 18.652 6.75519 19.5687 8.62226 19.9401C10.4893 20.3114 12.4246 20.1208 14.1833 19.3923C15.9421 18.6638 17.4453 17.4302 18.5029 15.8474C19.5605 14.2645 20.125 12.4036 20.125 10.5C20.125 7.94729 19.1109 5.49914 17.3059 3.6941C15.5009 1.88906 13.0527 0.875 10.5 0.875ZM10.5 18.375C8.94248 18.375 7.41993 17.9131 6.12489 17.0478C4.82985 16.1825 3.82049 14.9526 3.22445 13.5136C2.62841 12.0747 2.47246 10.4913 2.77632 8.96367C3.08018 7.43606 3.8302 6.03287 4.93154 4.93153C6.03288 3.8302 7.43607 3.08017 8.96367 2.77632C10.4913 2.47246 12.0747 2.62841 13.5136 3.22445C14.9526 3.82049 16.1825 4.82985 17.0478 6.12489C17.9131 7.41992 18.375 8.94247 18.375 10.5C18.375 12.5886 17.5453 14.5916 16.0685 16.0685C14.5916 17.5453 12.5886 18.375 10.5 18.375Z" fill="#83838C"/>
</g>
<defs>
<clipPath id="clip0_562_2128">
<rect width="21" height="21" fill="white"/>
</clipPath>
</defs>
</svg>
